<svg xmlns="http://www.w3.org/2000/svg" width="1200" height="630" viewBox="0 0 1200 630" role="img" aria-labelledby="title desc">
  <title id="title">AI収益化ノート</title>
  <desc id="desc">AI自動化とAIコーディングエージェント比較を扱う日本語ブログの共有画像</desc>
  <rect width="1200" height="630" fill="#f6fbfd"/>
  <circle cx="1040" cy="120" r="92" fill="#eaf8fb"/>
  <circle cx="150" cy="520" r="120" fill="#fff4cf"/>
  <rect x="70" y="70" width="1060" height="490" rx="28" fill="#ffffff" stroke="#e3eef3" stroke-width="4"/>
  <rect x="110" y="120" width="260" height="54" rx="18" fill="#14a9c7"/>
  <text x="137" y="156" font-family="sans-serif" font-size="24" fill="#ffffff" font-weight="700">AI収益化ノート</text>
  <text x="110" y="265" font-family="sans-serif" font-size="64" fill="#1f2933" font-weight="900">AI活用を、</text>
  <text x="110" y="345" font-family="sans-serif" font-size="64" fill="#1f2933" font-weight="900">現実的な収益導線へ</text>
  <text x="112" y="425" font-family="sans-serif" font-size="28" fill="#687987">比較・記事設計・note導線・AdSense準備</text>
  <g transform="translate(780 150)">
    <rect x="0" y="0" width="260" height="70" rx="16" fill="#f6fbfd" stroke="#e3eef3" stroke-width="3"/>
    <rect x="0" y="95" width="260" height="70" rx="16" fill="#f6fbfd" stroke="#e3eef3" stroke-width="3"/>
    <rect x="0" y="190" width="260" height="70" rx="16" fill="#f6fbfd" stroke="#e3eef3" stroke-width="3"/>
    <circle cx="36" cy="35" r="14" fill="#14a9c7"/>
    <circle cx="36" cy="130" r="14" fill="#f59e0b"/>
    <circle cx="36" cy="225" r="14" fill="#6cbf84"/>
    <rect x="68" y="25" width="145" height="12" rx="6" fill="#1f2933" opacity="0.7"/>
    <rect x="68" y="120" width="120" height="12" rx="6" fill="#1f2933" opacity="0.7"/>
    <rect x="68" y="215" width="160" height="12" rx="6" fill="#1f2933" opacity="0.7"/>
  </g>
</svg>
